<?xml version="1.0" encoding="utf-8"?>
<!-- Generator: Adobe Illustrator 14.0.0, SVG Export Plug-In . SVG Version: 6.00 Build 43363)  -->
<!DOCTYPE svg PUBLIC "-//W3C//DTD SVG 1.1//EN" "http://www.w3.org/Graphics/SVG/1.1/DTD/svg11.dtd">
<svg version="1.1" id="Capa_1" xmlns="http://www.w3.org/2000/svg" xmlns:xlink="http://www.w3.org/1999/xlink" x="0px" y="0px"
	 width="550.801px" height="550.801px" viewBox="0 0 550.801 550.801" enable-background="new 0 0 550.801 550.801"
	 xml:space="preserve">
<g>
	<path d="M75.601,419.302V529.2c0,11.907,9.682,21.601,21.6,21.601h356.399c11.907,0,21.601-9.692,21.601-21.601V419.302
		L475.2,197.019v-63.816c0-0.398-0.063-0.799-0.116-1.202c-0.021-2.534-0.827-5.023-2.562-6.995L366.325,3.694
		c-0.032-0.031-0.063-0.042-0.085-0.076c-0.633-0.707-1.371-1.295-2.151-1.804c-0.231-0.155-0.464-0.285-0.706-0.419
		c-0.676-0.369-1.393-0.675-2.131-0.896c-0.2-0.056-0.38-0.138-0.58-0.19C359.87,0.119,359.037,0,358.193,0H97.2
		C85.282,0,75.6,9.693,75.6,21.601v175.413L75.601,419.302z M453.6,419.302v104.052h0.001H97.2V197.026V21.605h250.192v110.513
		c0,5.967,4.842,10.8,10.801,10.8H453.6v54.108"/>
</g>
<text transform="matrix(1 0 0 1 160.9004 431.9004)" font-family="'MyriadPro-Bold'" font-size="400">ยง</text>
</svg>
