<?xml version="1.0" encoding="utf-8"?>
<!-- Generator: Adobe Illustrator 14.0.0, SVG Export Plug-In . SVG Version: 6.00 Build 43363)  -->
<!DOCTYPE svg PUBLIC "-//W3C//DTD SVG 1.1//EN" "http://www.w3.org/Graphics/SVG/1.1/DTD/svg11.dtd">
<svg version="1.1" id="Capa_1" xmlns="http://www.w3.org/2000/svg" xmlns:xlink="http://www.w3.org/1999/xlink" x="0px" y="0px"
	 width="600px" height="600px" viewBox="100 0 600 600" enable-background="new 100 0 600 600" xml:space="preserve">
<g>
	<rect x="436.734" y="61.225" fill="#718E3E" width="73.47" height="122.449"/>
	<path fill="#718E3E" d="M588.743,0h-482.62v600h587.755V105.135L588.743,0z M228.571,24.49h318.367v195.918H228.571V24.49z
		 M583.674,575.51H204.082V318.367h379.592V575.51z"/>
	<path fill="#718E3E" d="M265.306,391.837h85.714c6.771,0,12.245-5.474,12.245-12.245c0-6.771-5.473-12.245-12.245-12.245h-85.714
		c-6.771,0-12.245,5.475-12.245,12.245C253.061,386.363,258.535,391.837,265.306,391.837z"/>
	<path fill="#718E3E" d="M265.306,440.816h122.449c6.771,0,12.245-5.475,12.245-12.245c0-6.771-5.474-12.245-12.245-12.245H265.306
		c-6.771,0-12.245,5.474-12.245,12.245C253.061,435.342,258.535,440.816,265.306,440.816z"/>
	<path fill="#718E3E" d="M424.49,440.816c3.306,0,6.367-1.348,8.692-3.552c2.204-2.326,3.552-5.511,3.552-8.693
		c0-3.184-1.348-6.38-3.552-8.693c-4.529-4.531-12.733-4.531-17.266,0c-2.326,2.313-3.673,5.375-3.673,8.693
		c0,3.307,1.335,6.367,3.551,8.693C418.11,439.47,421.172,440.816,424.49,440.816z"/>
</g>
</svg>
