<?xml version="1.0" encoding="utf-8"?>
<!-- Generator: Adobe Illustrator 14.0.0, SVG Export Plug-In . SVG Version: 6.00 Build 43363)  -->
<!DOCTYPE svg PUBLIC "-//W3C//DTD SVG 1.1//EN" "http://www.w3.org/Graphics/SVG/1.1/DTD/svg11.dtd">
<svg version="1.1" id="Capa_1" xmlns="http://www.w3.org/2000/svg" xmlns:xlink="http://www.w3.org/1999/xlink" x="0px" y="0px"
	 width="550.801px" height="550.801px" viewBox="0 0 550.801 550.801" enable-background="new 0 0 550.801 550.801"
	 xml:space="preserve">
<g>
	<path d="M160.381,282.225c0-14.832-10.299-23.684-28.474-23.684c-7.414,0-12.437,0.715-15.071,1.432V307.6
		c3.114,0.707,6.942,0.949,12.192,0.949C148.419,308.549,160.381,298.74,160.381,282.225z"/>
	<path d="M272.875,259.019c-8.145,0-13.397,0.717-16.519,1.435v105.521c3.116,0.729,8.142,0.729,12.69,0.729
		c33.017,0.23,54.554-17.946,54.554-56.474C323.842,276.719,304.215,259.019,272.875,259.019z"/>
	<path d="M488.426,197.019H475.2v-63.816c0-0.398-0.063-0.799-0.116-1.202c-0.021-2.534-0.827-5.023-2.562-6.995L366.325,3.694
		c-0.032-0.031-0.063-0.042-0.085-0.076c-0.633-0.707-1.371-1.295-2.151-1.804c-0.231-0.155-0.464-0.285-0.706-0.419
		c-0.676-0.369-1.393-0.675-2.131-0.896c-0.2-0.056-0.38-0.138-0.58-0.19C359.87,0.119,359.037,0,358.193,0H97.2
		C85.282,0,75.6,9.693,75.6,21.601v175.413H62.377c-17.049,0-30.873,13.818-30.873,30.873v160.543
		c0,17.043,13.824,30.87,30.873,30.87h13.224V529.2c0,11.907,9.682,21.601,21.6,21.601H453.6c11.907,0,21.602-9.691,21.602-21.601
		V419.302h13.226c17.044,0,30.871-13.827,30.871-30.87v-160.54C519.297,210.838,505.47,197.019,488.426,197.019z M97.2,21.605
		h250.192v110.513c0,5.967,4.842,10.8,10.801,10.8H453.6v54.108H97.2V21.605z M453.601,523.354H97.2V419.302H453.6L453.601,523.354
		L453.601,523.354z"/>
</g>
<g enable-background="new    ">
	<path fill="#FFFFFF" d="M91.4,383.708L56.2,235.427h35.86l11.22,60.94c3.3,17.82,6.38,36.961,8.8,51.921h0.44
		c2.42-16.061,5.94-33.881,9.68-52.36l12.54-60.501h35.64l11.88,62.48c3.3,17.381,5.72,33.221,7.92,49.721h0.44
		c2.2-16.5,5.5-33.88,8.58-51.7l12.1-60.501h34.1l-38.28,148.281h-36.3l-12.541-63.801c-2.86-14.96-5.28-28.819-7.04-45.76h-0.44
		c-2.64,16.72-5.06,30.8-8.58,45.76l-14.08,63.801H91.4z"/>
	<path fill="#FFFFFF" d="M350.998,321.008h-54.561v35.2h60.94v27.5h-94.38V235.427h91.3v27.501h-57.86v30.8h54.561V321.008z"/>
	<path fill="#FFFFFF" d="M380.256,237.407c8.801-1.54,26.4-3.08,43.341-3.08c20.46,0,33,1.98,44,8.36
		c10.34,5.5,17.601,15.62,17.601,29.26c0,12.98-7.7,25.08-24.42,31.46v0.44c16.939,4.4,29.479,17.38,29.479,36.3
		c0,13.641-6.16,24.2-15.399,31.681c-10.78,8.58-28.82,13.42-58.301,13.42c-16.5,0-28.82-1.1-36.301-2.2V237.407z M413.477,294.168
		h11c17.82,0,27.061-7.261,27.061-18.261c0-11.22-8.58-17.16-23.76-17.16c-7.48,0-11.66,0.44-14.301,0.88V294.168z M413.477,359.948
		c3.3,0.439,7.26,0.439,12.98,0.439c15.18,0,28.6-5.939,28.6-21.56c0-14.74-13.42-20.681-30.141-20.681h-11.439V359.948z"/>
</g>
</svg>
