<?xml version="1.0" encoding="utf-8"?>
<!-- Generator: Adobe Illustrator 22.1.0, SVG Export Plug-In . SVG Version: 6.00 Build 0)  -->
<svg version="1.1" id="Ebene_1" xmlns="http://www.w3.org/2000/svg" xmlns:xlink="http://www.w3.org/1999/xlink" x="0px" y="0px"
	 viewBox="0 0 618 618" style="enable-background:new 0 0 618 618;" xml:space="preserve">
<style type="text/css">
	.st0{opacity:0.1;fill:#3A8A4A;enable-background:new    ;}
	.st1{fill:#FFFFFF;}
</style>
<circle class="st0" cx="309" cy="309" r="236.1"/>
<g>
	<g>
		<path class="st1" d="M497.8,333.5c-16.9-11-28.6-29.9-40.9-49.8c-1.3-2.1-2.6-4.2-3.9-6.3c23.4-66.4-8.9-119.6-10.3-121.9
			l-9.6-15.6L377,204.2c-19.9-8.4-42.9-12.5-69.5-12.5c-26.6,0-49.6,4.1-69.5,12.5l-56-64.3l-9.6,15.6
			c-1.4,2.3-33.7,55.6-10.3,121.9c-1.3,2.1-2.6,4.3-3.9,6.3c-12.3,20-24,38.8-40.9,49.8L100,344.7l17,11.4
			c1,0.7,101.4,68.2,124.2,90.7c7.2,7.1,12.9,14.5,18.5,21.6c12.3,15.8,25,32.2,47.8,32.2s35.5-16.4,47.8-32.2
			c5.6-7.1,11.3-14.5,18.5-21.6c22.8-22.5,123.2-90,124.2-90.7l17-11.4L497.8,333.5z M269.2,437.1c-2.7-3.2-5.7-6.4-8.9-9.6
			c-17.7-17.4-73.9-56.8-105.7-78.7c17.9-5.1,44.2-10.6,74-10.6c9.3,0,16.3,2.8,22,8.8C267.6,364.9,269.6,406.5,269.2,437.1z
			 M307.5,473.6c-4.5,0-8.3-1.7-12.3-5.3c0.1-2.8,0.2-6,0.3-9.4c0-0.3,0-0.7,0-1.1h23.8c0,0.4,0,0.7,0,1.1c0.1,3.5,0.3,6.6,0.3,9.4
			C315.8,471.8,312.1,473.6,307.5,473.6z M354.8,427.6c-3.2,3.2-6.2,6.4-8.9,9.6c-0.5-30.7,1.5-72.2,18.6-90c5.8-6,12.8-8.8,22-8.8
			c29.8,0,56.1,5.5,74,10.6C428.7,370.7,372.5,410.1,354.8,427.6z"/>
	</g>
	<g>
		<g>
			<path class="st1" d="M222.9,349.3c-7.5,0-13.7,6.1-13.7,13.6s6.1,13.6,13.7,13.6c7.5,0,13.6-6.1,13.6-13.6
				S230.4,349.3,222.9,349.3z"/>
		</g>
	</g>
	<g>
		<g>
			<path class="st1" d="M392.2,349.3c-7.5,0-13.7,6.1-13.7,13.6s6.1,13.6,13.7,13.6c7.5,0,13.6-6.1,13.6-13.6
				C405.8,355.4,399.7,349.3,392.2,349.3z"/>
		</g>
	</g>
</g>
</svg>
