<?xml version="1.0" encoding="utf-8"?>
<!-- Generator: Adobe Illustrator 14.0.0, SVG Export Plug-In . SVG Version: 6.00 Build 43363)  -->
<!DOCTYPE svg PUBLIC "-//W3C//DTD SVG 1.1//EN" "http://www.w3.org/Graphics/SVG/1.1/DTD/svg11.dtd">
<svg version="1.1" id="Capa_1" xmlns="http://www.w3.org/2000/svg" xmlns:xlink="http://www.w3.org/1999/xlink" x="0px" y="0px"
	 width="600px" height="600px" viewBox="100 0 600 600" enable-background="new 100 0 600 600" xml:space="preserve">
<g id="Delete__x2F__Trash">
	<path d="M241.061,559.276c0,0,8.937,40.724,54.939,40.724h208c46,0,54.938-40.724,54.938-40.724L600,160.001H200L241.061,559.276z
		 M480,220.002c0-11.047,8.953-20,20-20s20.002,8.953,20.002,20l-20.002,300c0,11.047-8.955,19.999-20,19.999
		c-11.044,0-19.999-8.954-19.999-19.999L480,220.002z M380,220.002c0-11.047,8.955-20,20-20c11.047,0,20,8.953,20,20v300
		c0,11.047-8.953,19.999-20,19.999s-20-8.954-20-19.999V220.002z M300,200c11.047,0,20,8.953,20,20l20.002,300
		c0,11.046-8.955,19.999-20.002,19.999c-11.044,0-20-8.955-20-19.999l-20-299.998C280,208.955,288.956,200,300,200z M587.999,80.032
		H500v-40.03C500,9.659,490.187,0,460.001,0H339.999C312.312,0,300,13.411,300,40.001v40.033h-87.999c-17.687,0-32,13.424-32,30.014
		c0,16.591,14.314,30.016,32,30.016h375.998c17.687,0,32.001-13.425,32.001-30.016C620,93.458,605.686,80.032,587.999,80.032z
		 M460.001,80.032h-120l0.002-40.033h120v40.033H460.001z"/>
</g>
</svg>
