<?xml version="1.0" encoding="utf-8"?>
<!-- Generator: Adobe Illustrator 14.0.0, SVG Export Plug-In . SVG Version: 6.00 Build 43363)  -->
<!DOCTYPE svg PUBLIC "-//W3C//DTD SVG 1.1//EN" "http://www.w3.org/Graphics/SVG/1.1/DTD/svg11.dtd">
<svg version="1.1" id="Capa_1" xmlns="http://www.w3.org/2000/svg" xmlns:xlink="http://www.w3.org/1999/xlink" x="0px" y="0px"
	 width="652.467px" height="600px" viewBox="-102.942 0 652.467 600" enable-background="new -102.942 0 652.467 600"
	 xml:space="preserve">
<g>
	<g>
		<polygon fill="#010002" points="425.276,30.644 135.106,30.644 13,139.855 13,567.896 407.944,567.896 399.444,529 
			56.232,529.457 56.232,181.702 181.501,181.702 181.501,69.034 382.043,69.034 382.043,159.5 425.276,116.167 		"/>
	</g>
</g>
<g>
	<g>
		<path d="M526.702,141.055l-15.336-15.334c-17.195-17.195-45.174-17.193-62.372,0L327.259,247.457H116.106
			c-7.198,0-13.034,5.835-13.034,13.034s5.835,13.034,13.034,13.034H301.19l-78.447,78.447H116.106
			c-7.198,0-13.034,5.836-13.034,13.033c0,7.199,5.835,13.033,13.034,13.033h80.569l-0.209,0.211c-1.591,1.59-2.74,3.562-3.343,5.73
			l-20.132,72.504h-56.885c-7.198,0-13.034,5.836-13.034,13.035c0,7.197,5.835,13.031,13.034,13.031H182.9
			c0.001,0,2.857-0.321,3.277-0.43c0.068-0.02,82.263-22.826,82.263-22.826c2.167-0.601,4.141-1.754,5.73-3.343l252.531-252.529
			C543.897,186.229,543.897,158.251,526.702,141.055z M201.625,450.793l10.638-38.312l27.675,27.676L201.625,450.793z
			 M264.955,428.305l-40.838-40.838L432.573,179.01l40.84,40.838L264.955,428.305z M508.268,184.992l-16.422,16.422l-40.84-40.839
			l16.422-16.422c7.035-7.033,18.475-7.032,25.504,0l15.336,15.336C515.3,166.519,515.3,177.961,508.268,184.992z"/>
	</g>
</g>
<g>
	<g>
		<polyline fill="#010002" points="382.043,381.167 382.043,567.896 425.276,567.896 425.444,337.5 		"/>
		<line fill="#010002" x1="1404.043" y1="618.896" x2="1404.043" y2="578.579"/>
	</g>
</g>
</svg>
