<?xml version="1.0" encoding="utf-8"?>
<!-- Generator: Adobe Illustrator 14.0.0, SVG Export Plug-In . SVG Version: 6.00 Build 43363)  -->
<!DOCTYPE svg PUBLIC "-//W3C//DTD SVG 1.1//EN" "http://www.w3.org/Graphics/SVG/1.1/DTD/svg11.dtd">
<svg version="1.1" id="Capa_1" xmlns="http://www.w3.org/2000/svg" xmlns:xlink="http://www.w3.org/1999/xlink" x="0px" y="0px"
	 width="550.801px" height="550.801px" viewBox="0 0 550.801 550.801" enable-background="new 0 0 550.801 550.801"
	 xml:space="preserve">
<g>
	<path d="M75.601,419.302V529.2c0,11.907,9.682,21.601,21.6,21.601H453.6c11.907,0,21.602-9.691,21.602-21.601V419.302
		L475.2,197.019v-63.816c0-0.398-0.063-0.799-0.116-1.202c-0.021-2.534-0.827-5.023-2.562-6.995L366.325,3.694
		c-0.032-0.031-0.063-0.042-0.085-0.076c-0.633-0.707-1.371-1.295-2.151-1.804c-0.231-0.155-0.464-0.285-0.706-0.419
		c-0.676-0.369-1.393-0.675-2.131-0.896c-0.2-0.056-0.38-0.138-0.58-0.19C359.87,0.119,359.037,0,358.193,0H97.2
		C85.282,0,75.6,9.693,75.6,21.601v175.413L75.601,419.302z M453.6,419.302v104.052h0.001H97.2V197.026V21.605h250.192v110.513
		c0,5.967,4.842,10.8,10.801,10.8H453.6v54.108"/>
</g>
<g enable-background="new    ">
	<path d="M336.897,207.104c-11.999-5.6-28.8-11.199-52.799-11.199c-23.2,0-35.6,7.6-35.6,19.199c0,12,14,19.2,42.8,28
		c43.199,12.8,75.998,28.799,75.998,69.999c0,21.199-12,37.599-28.799,48.399c7.6,5.999,17.6,19.199,17.6,37.199
		c0,48.799-51.6,63.999-88.799,63.999c-24,0-53.199-4-74.799-17.6l11.6-36.8c12,6.8,36.399,16.399,60.799,16.399
		c21.2,0,36-6.8,36-20.399c0-13.2-12-20.399-42.399-30C216.1,361.502,178.9,345.102,178.9,305.502c0-17.6,10.8-37.999,33.2-48.799
		c-8.4-6.8-16-21.6-16-36.399c0-40.399,38.399-61.999,87.6-61.999c22.799,0,44.398,3.6,62.799,12L336.897,207.104z M260.899,325.902
		c18.4,6.8,38,12.399,46.799,17.199c7.2-4.399,11.999-12.8,11.999-20.8c0-11.6-7.999-21.199-27.599-28.799
		c-16.8-6.4-39.6-14-51.6-19.601c-8.4,4.4-14.399,11.601-14.399,21.2C226.1,307.902,236.899,317.502,260.899,325.902z"/>
</g>
</svg>
