<?xml version="1.0" encoding="utf-8"?>
<!-- Generator: Adobe Illustrator 14.0.0, SVG Export Plug-In . SVG Version: 6.00 Build 43363)  -->
<!DOCTYPE svg PUBLIC "-//W3C//DTD SVG 1.1//EN" "http://www.w3.org/Graphics/SVG/1.1/DTD/svg11.dtd">
<svg version="1.1" id="Capa_1" xmlns="http://www.w3.org/2000/svg" xmlns:xlink="http://www.w3.org/1999/xlink" x="0px" y="0px"
	 width="600px" height="600px" viewBox="0 0 600 600" enable-background="new 0 0 600 600" xml:space="preserve">
<g>
	<rect x="336.856" y="61.225" fill="#72C2E4" width="73.47" height="122.449"/>
	<path fill="#72C2E4" d="M488.865,0H6.245v600H594V105.135L488.865,0z M128.693,24.49H447.06v195.918H128.693V24.49z
		 M483.796,575.51H104.204V318.367h379.592V575.51z"/>
	<path fill="#72C2E4" d="M165.428,391.837h85.713c6.771,0,12.246-5.474,12.246-12.245c0-6.771-5.475-12.245-12.246-12.245h-85.713
		c-6.771,0-12.245,5.477-12.245,12.245C153.183,386.363,158.657,391.837,165.428,391.837z"/>
	<path fill="#72C2E4" d="M165.428,440.816h122.449c6.771,0,12.245-5.477,12.245-12.245c0-6.771-5.475-12.245-12.245-12.245H165.428
		c-6.771,0-12.245,5.474-12.245,12.245C153.183,435.342,158.657,440.816,165.428,440.816z"/>
	<path fill="#72C2E4" d="M324.612,440.816c3.306,0,6.367-1.35,8.69-3.554c2.204-2.325,3.554-5.511,3.554-8.691
		c0-3.186-1.35-6.38-3.554-8.693c-4.527-4.531-12.731-4.531-17.266,0c-2.326,2.313-3.673,5.375-3.673,8.693
		c0,3.307,1.335,6.367,3.551,8.691C318.232,439.47,321.294,440.816,324.612,440.816z"/>
</g>
</svg>
