<?xml version="1.0" encoding="utf-8"?>
<!-- Generator: Adobe Illustrator 14.0.0, SVG Export Plug-In . SVG Version: 6.00 Build 43363)  -->
<!DOCTYPE svg PUBLIC "-//W3C//DTD SVG 1.1//EN" "http://www.w3.org/Graphics/SVG/1.1/DTD/svg11.dtd">
<svg version="1.1" id="Ebene_1" xmlns="http://www.w3.org/2000/svg" xmlns:xlink="http://www.w3.org/1999/xlink" x="0px" y="0px"
	 width="800px" height="600px" viewBox="0 0 800 600" enable-background="new 0 0 800 600" xml:space="preserve">
<circle opacity="0.1" fill="#2990BB" enable-background="new    " cx="400" cy="300" r="229.223"/>
<g>
	<g>
		<path fill="#FFFFFF" d="M583.301,323.786c-16.407-10.68-27.767-29.029-39.709-48.349c-1.262-2.039-2.523-4.078-3.786-6.117
			c22.719-64.466-8.641-116.116-10-118.35l-9.32-15.146l-54.466,62.427c-19.32-8.155-41.65-12.136-67.476-12.136
			c-25.826,0-48.156,3.98-67.476,12.136l-54.369-62.427l-9.321,15.146c-1.359,2.233-32.718,53.981-10,118.35
			c-1.262,2.039-2.524,4.175-3.786,6.117c-11.942,19.417-23.301,37.669-39.709,48.349l-16.796,10.874l16.505,11.068
			c0.971,0.68,98.447,66.213,120.583,88.058c6.99,6.894,12.524,14.078,17.961,20.971c11.942,15.34,24.272,31.263,46.408,31.263
			c22.136,0,34.466-15.923,46.407-31.263c5.438-6.893,10.971-14.077,17.961-20.971c22.137-21.845,119.612-87.378,120.583-88.058
			L600,334.66L583.301,323.786z M361.359,424.369c-2.622-3.107-5.534-6.214-8.641-9.32c-17.184-16.894-71.748-55.146-102.621-76.408
			c17.378-4.951,42.913-10.291,71.845-10.291c9.029,0,15.825,2.719,21.359,8.544C359.806,354.271,361.748,394.66,361.359,424.369z
			 M398.544,459.806c-4.369,0-8.059-1.65-11.942-5.146c0.097-2.719,0.194-5.825,0.291-9.126c0-0.291,0-0.68,0-1.068H410
			c0,0.389,0,0.68,0,1.068c0.097,3.397,0.291,6.407,0.291,9.126C406.602,458.059,403.01,459.806,398.544,459.806z M444.466,415.146
			c-3.106,3.106-6.02,6.214-8.641,9.32c-0.485-29.806,1.456-70.097,18.059-87.379c5.631-5.825,12.427-8.543,21.359-8.543
			c28.932,0,54.466,5.34,71.845,10.291C516.214,359.903,461.65,398.155,444.466,415.146z"/>
	</g>
	<g>
		<g>
			<path fill="#FFFFFF" d="M316.408,339.126c-7.282,0-13.301,5.923-13.301,13.204s5.922,13.204,13.301,13.204
				c7.282,0,13.204-5.923,13.204-13.204S323.689,339.126,316.408,339.126z"/>
		</g>
	</g>
	<g>
		<g>
			<path fill="#FFFFFF" d="M480.776,339.126c-7.281,0-13.301,5.923-13.301,13.204s5.923,13.204,13.301,13.204
				c7.282,0,13.204-5.923,13.204-13.204S488.059,339.126,480.776,339.126z"/>
		</g>
	</g>
</g>
</svg>
